<?xml version="1.0" encoding="utf-8"?>
<!-- Generator: Adobe Illustrator 22.0.1, SVG Export Plug-In . SVG Version: 6.00 Build 0)  -->
<svg version="1.1" id="Layer_1" xmlns="http://www.w3.org/2000/svg" xmlns:xlink="http://www.w3.org/1999/xlink" x="0px" y="0px"
	 viewBox="0 0 360.4 360.4" style="enable-background:new 0 0 360.4 360.4;" xml:space="preserve">
<style type="text/css">
	.st0{fill:#0574BC;}
</style>
<path class="st0" d="M72.1-0.1C45.5-0.1,0.3,17.6,0.3,61.5c0,24.4,21.6,41.9,43.7,41.9c20.2,0,35.1-17.3,35.1-32.2
	c0-13-8.5-20-8.5-27.8c0-10.9,12.1-16.3,20.5-16.3c47.3,0,66.4,37.7,70.9,33.2C168.4,54,130.8-0.1,72.1-0.1z"/>
<path class="st0" d="M146.4,170.8c0-90.9,63.1-170.9,134.2-170.9c43,0,79.6,38.3,79.6,76.1c0,37.6-27.4,68.8-55,68.8
	c-51.8,0-58.4-46.4-83.1-46.4c-28.1,0-46.6,44.6-46.6,81.4c0,59.2,24,121,68.9,166c5.8,5.8,5.7,13.9-2.9,13.9
	C232.4,359.7,146.4,289.2,146.4,170.8z"/>
</svg>
