<?xml version="1.0" encoding="utf-8"?>
<!-- Generator: Adobe Illustrator 26.3.1, SVG Export Plug-In . SVG Version: 6.00 Build 0)  -->
<svg version="1.1" id="Layer_1" xmlns="http://www.w3.org/2000/svg" xmlns:xlink="http://www.w3.org/1999/xlink" x="0px" y="0px"
	 viewBox="0 0 5521.7 360" style="enable-background:new 0 0 5521.7 360;" xml:space="preserve">
<style type="text/css">
	.st0{fill:#0074BC;}
	.st1{fill:#FFFFFF;}
</style>
<path class="st0" d="M71.8,0.1C45.2,0.1,0,17.8,0,61.7c0,24.4,21.6,41.9,43.7,41.9c20.2,0,35.1-17.3,35.1-32.2c0-13-8.5-20-8.5-27.8
	c0-10.9,12.1-16.3,20.5-16.3c47.3,0,66.4,37.7,70.9,33.2C168.1,54.2,130.5,0.1,71.8,0.1z"/>
<path class="st0" d="M146.1,171C146.1,80,209.2,0.1,280.2,0.1c43,0,79.6,38.3,79.6,76.1c0,37.6-27.4,68.8-55,68.8
	c-51.8,0-58.4-46.4-83.1-46.4c-28.1,0-46.6,44.6-46.6,81.4c0,59.2,24,121,68.9,166c5.8,5.8,5.7,13.9-2.9,13.9
	C232.1,359.9,146.1,289.4,146.1,171z"/>
<path class="st1" d="M548.3,89.5h-11.7l1.8-83.1h335.5l1.8,83.1h-11c-3.9-22.8-9.3-39.2-16.1-49.3c-6.8-10.1-14.1-16.3-21.9-18.6
	c-7.8-2.3-21.2-3.4-40-3.4h-55.6v244c0,27,0.6,44.8,1.9,53.3c1.3,8.5,4.7,14.8,10.3,18.9c5.6,4.1,16.1,6.1,31.6,6.1h16.8v11.7H619.4
	v-11.7h17.8c14.8,0,25-1.9,30.7-5.6c5.7-3.7,9.3-9.6,11-17.5c1.6-7.9,2.4-26.3,2.4-55.2v-244h-51.2c-22.3,0-37.2,1.1-44.9,3.2
	c-7.6,2.1-14.8,8.5-21.5,19.2C557,51.2,551.8,67.6,548.3,89.5z"/>
<path class="st1" d="M1187.2,178.7h-180.5v83.4c0,27.2,0.7,45,2,53.4c1.4,8.4,4.8,14.7,10.3,18.7c5.5,4.1,16,6.1,31.5,6.1h8.9v11.7
	H903.9v-11.7h8.9c14.8,0,25-1.9,30.7-5.6c5.7-3.7,9.3-9.6,11-17.5c1.6-7.9,2.4-26.3,2.4-55.2V92.5c0-27.5-0.8-45.3-2.4-53.3
	c-1.6-8-5-13.5-10.2-16.6c-5.2-3.1-16.5-4.6-34-4.6h-6.4V6.4h155.5v11.7h-6.4c-16.8,0-27.9,1.4-33.1,4.2c-5.3,2.8-8.8,8-10.6,15.7
	c-1.8,7.6-2.7,25.8-2.7,54.6v68.6h180.5V92.5c0-27.5-0.8-45.3-2.3-53.3c-1.5-8-4.9-13.5-10.1-16.6c-5.2-3.1-16.5-4.6-34-4.6h-9.2
	V6.4h157.3v11.7h-5.1c-17,0-28.1,1.4-33.4,4.2c-5.3,2.8-8.8,8-10.6,15.7c-1.8,7.6-2.7,25.8-2.7,54.6v169.5c0,27.2,0.6,45,1.9,53.4
	c1.3,8.4,4.7,14.7,10.3,18.7c5.6,4.1,16.1,6.1,31.6,6.1h7.9v11.7h-157.3v-11.7h12c14.6,0,24.8-1.9,30.5-5.6
	c5.7-3.7,9.3-9.6,10.8-17.5c1.5-7.9,2.3-26.3,2.3-55.2V178.7z"/>
<path class="st1" d="M1604.6,244.5h12.2l-7.4,107.6h-286.3v-11.7h7.1c17.2,0,28.3-2.3,33.3-6.9c5-4.6,8.4-10.7,9.6-17.5
	c1.4-7.1,2-25,2-53.9V92.5c0-26.3-0.7-43.7-2.2-52c-1.4-8.3-4.8-14.1-9.9-17.5c-5.2-3.3-16.1-5-32.8-5V6.4h247.1l8.2,86.2h-12
	c-5.4-24.1-12.1-41.3-20-51.4c-7.9-10.1-17.3-16.5-28.2-19.1c-10.9-2.6-28.4-4-52.5-4h-47.9v145.1h36.7c16.8,0,28.6-1.4,35.3-4.3
	c6.7-2.9,11.1-7.3,13.3-13.1c2.1-5.9,3.2-17.3,3.2-34.3h12v118.3h-12c0-19.2-1.6-32.1-4.8-38.6c-3.2-6.5-7.9-10.8-14.2-12.7
	c-6.2-2-16.7-2.9-31.5-2.9h-38v81.8c0,41,2.6,65.1,7.9,72.3c5.3,7.2,19.5,10.8,42.6,10.8h25.8c18.2,0,33.1-2.3,44.9-7
	c11.7-4.7,22.9-14.3,33.5-28.8C1590.1,290,1598.4,270,1604.6,244.5z"/>
<path class="st1" d="M1793.5,348.5V237.4h12.7c14.4,72.4,48.7,108.6,102.7,108.6c24.3,0,43.1-6.9,56.5-20.8
	c13.3-13.9,20-29.4,20-46.5c0-17.3-5.9-31.9-17.6-43.6c-11.7-11.6-33.1-24-64.2-37.2c-27.7-11.9-48.6-22.3-62.7-31.2
	c-13.8-8.6-25.2-20.6-33-34.8c-7.8-13.9-11.9-29.7-11.9-45.6c0-24.6,8.5-45.2,25.6-61.6C1838.7,8.2,1860.4,0,1886.5,0
	c14.1-0.1,28.1,2.3,41.3,7.1c12.9,4.8,26.2,14.6,39.8,29.6c7.8-9.3,12.2-19.5,13.3-30.3h11.2v90.5h-11.2
	c-6.5-26.3-17.9-47.1-34.3-62.2c-16.4-15.1-35.4-22.7-57-22.7c-20.6,0-35.7,5.6-45.3,16.7c-9.6,11.1-14.4,23.3-14.4,36.6
	c0,16,6,29.5,18.1,40.5c11.9,11.2,33.4,23.8,64.5,37.7c29.7,13.3,51.4,23.9,64.9,32c13.6,8.1,24.8,19.7,32.5,33.5
	c8.2,14.3,12.2,30.8,12.2,49.5c0,29.6-9.9,53.6-29.6,72.2c-19.7,18.5-46.1,27.8-79,27.8c-37.9,0-69.5-14.5-94.8-43.6
	c-5.6,8-9.8,19.2-12.5,33.7L1793.5,348.5z"/>
<path class="st1" d="M2071.1,89.5h-11.7l1.8-83.1h335.5l1.8,83.1h-11c-3.9-22.8-9.3-39.2-16.1-49.3c-6.8-10.1-14.1-16.3-21.9-18.6
	c-7.8-2.3-21.2-3.4-40-3.4h-55.6v244c0,27,0.6,44.8,1.9,53.3c1.3,8.5,4.7,14.8,10.3,18.9c5.6,4.1,16.1,6.1,31.6,6.1h16.8v11.7
	h-172.4v-11.7h17.8c14.8,0,25-1.9,30.7-5.6c5.7-3.7,9.3-9.6,11-17.5c1.6-7.9,2.4-26.3,2.4-55.2v-244H2153c-22.3,0-37.2,1.1-44.9,3.2
	c-7.6,2.1-14.8,8.5-21.5,19.2C2079.8,51.2,2074.7,67.6,2071.1,89.5z"/>
<path class="st1" d="M2686.3,6.4h115.5v11.7c-15.3,1-26.7,4.5-34.3,10.3c-7.6,5.9-12.2,12.5-13.9,19.8c-1.7,7.3-2.6,21.5-2.5,42.6
	v115c0,29.4-1.1,51.2-3.4,65.5c-2.3,14.3-8.9,28.3-19.9,42.1c-11,13.8-26.4,24.7-46.3,32.9s-42.8,12.2-68.8,12.2
	c-30.8,0-56.8-5.2-78.1-15.7c-21.3-10.5-36.5-24-45.6-40.5c-9.1-16.6-13.6-38.8-13.6-66.7l0.3-35.4V92.5c0-27.5-0.8-45.3-2.4-53.3
	c-1.6-8-5-13.5-10.2-16.6c-5.2-3.1-16.5-4.6-34-4.6h-7.9V6.4h157.8v11.7h-6.9c-17,0-28.1,1.4-33.4,4.2c-5.3,2.8-8.8,8-10.6,15.7
	c-1.8,7.6-2.7,25.8-2.7,54.6v108.9c0,37.7,1.7,64.5,5.2,80.3c3.5,15.8,13.3,29.6,29.4,41.4c16.1,11.8,37.6,17.7,64.5,17.7
	c21.1,0,40.2-4,57.5-11.9c17.2-7.9,30.1-17.8,38.5-29.6c8.4-11.8,13.6-24,15.4-36.5c1.9-12.5,2.8-32.2,2.8-59V86.2
	c0-19.5-1.1-33.2-3.3-41c-2.2-7.8-7.3-14.5-14.3-18.6c-7.3-4.6-18.9-7.4-34.7-8.4L2686.3,6.4z"/>
<path class="st1" d="M2825.3,9.2l56.9-2.8c47.4-2.4,79.4-3.6,95.9-3.6c51.3,0,91.4,7.8,120.1,23.5c28.7,15.6,50.1,36.8,64.1,63.6
	c14,26.8,21,57.7,21,92.7c0,25.3-3.8,48.5-11.5,69.5c-7.6,21-18.1,38.4-31.5,52.3c-13.1,13.7-28.9,24.4-46.4,31.6
	c-17.6,7.2-34.3,11.7-50.1,13.5c-15.8,1.8-38.1,2.7-66.8,2.7h-153.2v-11.7h14.3c14.8,0,25-1.9,30.7-5.6c5.7-3.7,9.3-9.6,11-17.5
	c1.6-7.9,2.4-26.3,2.4-55.2V95.4c0-27.5-0.8-45.3-2.4-53.4c-1.6-8.1-5-13.6-10.2-16.6c-5.2-3-16.5-4.5-34-4.5h-10.2L2825.3,9.2z
	 M2931.9,16.3v231c0,34.2,0.6,56.2,1.9,66c1.3,9.9,5.1,16.8,11.5,20.8c6.4,4,19.8,6,40.4,6c30.1,0,54.8-4.1,74.2-12.4
	c19.4-8.2,35.6-24.5,48.6-48.7c13-24.2,19.5-55.1,19.5-92.7c0-29.2-3.8-55.3-11.3-78.3c-7.6-22.9-18.4-41.6-32.5-56
	c-14.1-14.4-29.7-24.1-46.9-29.3c-17.2-5.2-39.2-7.8-66-7.8C2958.2,15,2945.1,15.5,2931.9,16.3z"/>
<path class="st1" d="M3508.1,244.5h12.2l-7.4,107.6h-286.3v-11.7h7.1c17.2,0,28.3-2.3,33.3-6.9c5-4.6,8.4-10.7,9.6-17.5
	c1.4-7.1,2-25,2-53.9V92.5c0-26.3-0.7-43.7-2.2-52c-1.4-8.3-4.8-14.1-9.9-17.5c-5.2-3.3-16.1-5-32.8-5V6.4h247.1l8.2,86.2h-12
	c-5.4-24.1-12.1-41.3-20-51.4c-7.9-10.1-17.3-16.5-28.2-19.1c-10.9-2.6-28.4-4-52.5-4h-47.9v145.1h36.7c16.8,0,28.6-1.4,35.3-4.3
	c6.7-2.9,11.1-7.3,13.3-13.1c2.1-5.9,3.2-17.3,3.2-34.3h12v118.3h-12c0-19.2-1.6-32.1-4.8-38.6c-3.2-6.5-7.9-10.8-14.2-12.7
	c-6.2-2-16.7-2.9-31.5-2.9h-38v81.8c0,41,2.6,65.1,7.9,72.3c5.3,7.2,19.5,10.8,42.6,10.8h25.8c18.2,0,33.1-2.3,44.9-7
	c11.7-4.7,22.9-14.3,33.5-28.8C3493.6,290,3502,270,3508.1,244.5z"/>
<path class="st1" d="M3857.9,360L3613.4,35.9v239.9c0,19.9,1,33,2.9,39.3c2,6.3,7.5,12.1,16.7,17.3c9.2,5.3,22.9,7.9,41.3,7.9v11.7
	h-129v-11.7c16.5-1.2,29.1-4.2,37.7-9.1c8.7-4.8,13.8-10.1,15.4-15.7c1.6-5.6,2.4-18.9,2.4-39.8V92.5c0-26.5-1.2-44.3-3.7-53.3
	c-2.5-9-6.4-14.8-11.7-17.3c-5.4-2.5-17.3-3.8-35.8-3.8V6.4h102l204.7,270.5V70.1c0-15.3-1.6-26-4.7-32.1c-3.1-6.1-9.6-11-19.2-14.5
	c-9.7-3.6-21.3-5.4-34.9-5.4V6.4h125.4v11.7c-14.6,1.2-26.1,4-34.5,8.4c-8.4,4.4-13.8,9.7-16.1,15.9c-2.3,6.2-3.4,16.7-3.4,31.5V360
	H3857.9z"/>
<path class="st1" d="M3953,89.5h-11.7l1.8-83.1h335.5l1.8,83.1h-11c-3.9-22.8-9.3-39.2-16.1-49.3c-6.8-10.1-14.1-16.3-21.9-18.6
	c-7.8-2.3-21.2-3.4-40-3.4h-55.6v244c0,27,0.6,44.8,1.9,53.3c1.3,8.5,4.7,14.8,10.3,18.9c5.6,4.1,16.1,6.1,31.6,6.1h16.8v11.7
	h-172.4v-11.7h17.8c14.8,0,25-1.9,30.7-5.6c5.7-3.7,9.3-9.6,11-17.5c1.6-7.9,2.4-26.3,2.4-55.2v-244h-51.2
	c-22.3,0-37.2,1.1-44.9,3.2c-7.6,2.1-14.8,8.5-21.5,19.2C3961.7,51.2,3956.5,67.6,3953,89.5z"/>
<path class="st1" d="M4733.9,250.4l-2.5,101.7h-293.7v-11.7h10.2c14.8,0,25-1.9,30.7-5.6c5.7-3.7,9.3-9.6,11-17.5
	c1.6-7.9,2.4-26.3,2.4-55.2V92.5c0-27.5-0.8-45.3-2.4-53.3c-1.6-8-5-13.5-10.2-16.6c-5.2-3.1-16.5-4.6-34-4.6h-7.6V6.4h166v11.7
	h-15.3c-17,0-28.1,1.4-33.4,4.2c-5.3,2.8-8.8,8-10.6,15.7s-2.7,25.8-2.7,54.6v181c0,25,0.7,40.6,2,46.9c1.4,6.3,5.1,11.2,11.1,14.7
	c6,3.5,19,5.2,38.9,5.2h26.3c21.2,0,37-1.9,47.3-5.6c10.3-3.7,20.1-11.9,29.3-24.5c9.3-12.6,17.7-32.5,25.4-59.9L4733.9,250.4z"/>
<path class="st1" d="M4751.8,18.1V6.4h158.1v11.7h-7.4c-17,0-28.1,1.4-33.4,4.2c-5.3,2.8-8.8,8-10.6,15.7s-2.7,25.8-2.7,54.6v169.5
	c0,27.2,0.6,45,1.9,53.4c1.3,8.4,4.7,14.7,10.2,18.7c5.5,4.1,16.1,6.1,31.7,6.1h10.2v11.7h-158.1v-11.7h10.2c14.8,0,25-1.9,30.7-5.6
	c5.7-3.7,9.3-9.6,10.8-17.5c1.5-7.9,2.3-26.3,2.3-55.2V92.5c0-27.5-0.8-45.3-2.3-53.3c-1.5-8-4.9-13.5-10.2-16.6
	c-5.3-3.1-16.7-4.6-34.2-4.6L4751.8,18.1z"/>
<path class="st1" d="M5206.3,6.4l2.8,86.2h-12c-2.4-18.9-7.7-34.5-15.9-46.8c-8.2-12.3-16.9-20-25.9-23.1c-9-3.1-24.2-4.6-45.6-4.6
	h-67.6v146.6h32.4c20.9,0,34.8-3.5,41.7-10.6c6.9-7.1,10.3-21.2,10.3-42.5h12.7v121.9h-12.7c0-14.8-1.5-26.5-4.5-35.1
	c-3-8.6-7.4-14.4-13.3-17.6c-5.9-3.1-17.3-4.7-34.3-4.7h-32.4v85.9c0,27.2,0.7,45,2,53.4c1.4,8.4,4.8,14.7,10.3,18.7
	c5.5,4.1,16.2,6.1,32,6.1h11.7v11.7h-160.6v-11.7h10.7c14.8,0,25-1.9,30.7-5.6c5.7-3.7,9.3-9.6,11-17.5c1.6-7.9,2.4-26.3,2.4-55.2
	V92.5c0-27.5-0.8-45.3-2.4-53.3c-1.6-8-5-13.5-10.2-16.6c-5.2-3.1-16.5-4.6-34-4.6h-6.1V6.4H5206.3z"/>
<path class="st1" d="M5509.5,244.5h12.2l-7.4,107.6H5228v-11.7h7.1c17.2,0,28.3-2.3,33.3-6.9c5-4.6,8.4-10.7,9.6-17.5
	c1.4-7.1,2-25,2-53.9V92.5c0-26.3-0.7-43.7-2.2-52c-1.4-8.3-4.8-14.1-9.9-17.5c-5.2-3.3-16.1-5-32.8-5V6.4h247.1l8.2,86.2h-12
	c-5.4-24.1-12.1-41.3-20-51.4c-7.9-10.1-17.3-16.5-28.2-19.1c-10.9-2.6-28.4-4-52.5-4h-47.9v145.1h36.7c16.8,0,28.6-1.4,35.3-4.3
	c6.7-2.9,11.1-7.3,13.3-13.1c2.1-5.9,3.2-17.3,3.2-34.3h12v118.3h-12c0-19.2-1.6-32.1-4.8-38.6c-3.2-6.5-7.9-10.8-14.2-12.7
	c-6.2-2-16.7-2.9-31.5-2.9h-38v81.8c0,41,2.6,65.1,7.9,72.3c5.3,7.2,19.5,10.8,42.6,10.8h25.8c18.2,0,33.1-2.3,44.9-7
	c11.7-4.7,22.9-14.3,33.5-28.8C5495,290,5503.4,270,5509.5,244.5z"/>
</svg>
